<?xml version="1.0" encoding="utf-8" ?>
<svg baseProfile="full" height="900px" version="1.1" width="1200px" xmlns="http://www.w3.org/2000/svg" xmlns:ev="http://www.w3.org/2001/xml-events" xmlns:xlink="http://www.w3.org/1999/xlink"><defs /><rect fill="#FFFFFF" height="900px" width="1200px" x="0" y="0" /><text fill="#2C3E50" font-family="Arial" font-size="28px" font-weight="bold" text-anchor="middle" x="600" y="40">24 Competencies for Vision Implementation</text><g><rect fill="#34495E" height="60" stroke="#2C3E50" stroke-width="2" width="180" x="50" y="80" /><text fill="#FFFFFF" font-family="Arial" font-size="14px" font-weight="bold" text-anchor="middle" x="140" y="105">Communication</text><g><rect fill="#FF6B6B" height="120" rx="5" ry="5" stroke="#2C3E50" stroke-width="2" width="180" x="50" y="160" /><text fill="#2C3E50" font-family="Arial" font-size="13px" font-weight="bold" text-anchor="middle" x="140" y="205">1.1 Storytelling</text><text fill="#555555" font-family="Arial" font-size="11px" text-anchor="middle" x="140" y="235">Tier 1</text></g><g><rect fill="#4ECDC4" height="120" rx="5" ry="5" stroke="#2C3E50" stroke-width="2" width="180" x="50" y="310" /><text fill="#2C3E50" font-family="Arial" font-size="13px" font-weight="bold" text-anchor="middle" x="140" y="355">1.2 Messaging</text><text fill="#555555" font-family="Arial" font-size="11px" text-anchor="middle" x="140" y="385">Tier 2</text></g><g><rect fill="#95E1D3" height="120" rx="5" ry="5" stroke="#2C3E50" stroke-width="2" width="180" x="50" y="460" /><text fill="#2C3E50" font-family="Arial" font-size="13px" font-weight="bold" text-anchor="middle" x="140" y="505">1.3 Listening</text><text fill="#555555" font-family="Arial" font-size="11px" text-anchor="middle" x="140" y="535">Tier 3</text></g><g><rect fill="#95E1D3" height="120" rx="5" ry="5" stroke="#2C3E50" stroke-width="2" width="180" x="50" y="610" /><text fill="#2C3E50" font-family="Arial" font-size="13px" font-weight="bold" text-anchor="middle" x="140" y="655">1.4 Presentation</text><text fill="#555555" font-family="Arial" font-size="11px" text-anchor="middle" x="140" y="685">Tier 3</text></g></g><g><rect fill="#34495E" height="60" stroke="#2C3E50" stroke-width="2" width="180" x="250" y="80" /><text fill="#FFFFFF" font-family="Arial" font-size="14px" font-weight="bold" text-anchor="middle" x="340" y="105">Stakeholder</text><text fill="#FFFFFF" font-family="Arial" font-size="14px" font-weight="bold" text-anchor="middle" x="340" y="125">Management</text><g><rect fill="#4ECDC4" height="120" rx="5" ry="5" stroke="#2C3E50" stroke-width="2" width="180" x="250" y="160" /><text fill="#2C3E50" font-family="Arial" font-size="13px" font-weight="bold" text-anchor="middle" x="340" y="205">2.1 Analysis</text><text fill="#555555" font-family="Arial" font-size="11px" text-anchor="middle" x="340" y="235">Tier 2</text></g><g><rect fill="#95E1D3" height="120" rx="5" ry="5" stroke="#2C3E50" stroke-width="2" width="180" x="250" y="310" /><text fill="#2C3E50" font-family="Arial" font-size="13px" font-weight="bold" text-anchor="middle" x="340" y="355">2.2 Relationship</text><text fill="#555555" font-family="Arial" font-size="11px" text-anchor="middle" x="340" y="385">Tier 3</text></g><g><rect fill="#FF6B6B" height="120" rx="5" ry="5" stroke="#2C3E50" stroke-width="2" width="180" x="250" y="460" /><text fill="#2C3E50" font-family="Arial" font-size="13px" font-weight="bold" text-anchor="middle" x="340" y="505">2.3 Engagement</text><text fill="#555555" font-family="Arial" font-size="11px" text-anchor="middle" x="340" y="535">Tier 1</text></g><g><rect fill="#95E1D3" height="120" rx="5" ry="5" stroke="#2C3E50" stroke-width="2" width="180" x="250" y="610" /><text fill="#2C3E50" font-family="Arial" font-size="13px" font-weight="bold" text-anchor="middle" x="340" y="655">2.4 Conflict Mgmt</text><text fill="#555555" font-family="Arial" font-size="11px" text-anchor="middle" x="340" y="685">Tier 3</text></g></g><g><rect fill="#34495E" height="60" stroke="#2C3E50" stroke-width="2" width="180" x="450" y="80" /><text fill="#FFFFFF" font-family="Arial" font-size="14px" font-weight="bold" text-anchor="middle" x="540" y="105">Execution</text><text fill="#FFFFFF" font-family="Arial" font-size="14px" font-weight="bold" text-anchor="middle" x="540" y="125">Management</text><g><rect fill="#95E1D3" height="120" rx="5" ry="5" stroke="#2C3E50" stroke-width="2" width="180" x="450" y="160" /><text fill="#2C3E50" font-family="Arial" font-size="13px" font-weight="bold" text-anchor="middle" x="540" y="205">3.1 Goal Setting</text><text fill="#555555" font-family="Arial" font-size="11px" text-anchor="middle" x="540" y="235">Tier 3</text></g><g><rect fill="#95E1D3" height="120" rx="5" ry="5" stroke="#2C3E50" stroke-width="2" width="180" x="450" y="310" /><text fill="#2C3E50" font-family="Arial" font-size="13px" font-weight="bold" text-anchor="middle" x="540" y="355">3.2 Prioritization</text><text fill="#555555" font-family="Arial" font-size="11px" text-anchor="middle" x="540" y="385">Tier 3</text></g><g><rect fill="#F3F3F3" height="120" rx="5" ry="5" stroke="#2C3E50" stroke-width="2" width="180" x="450" y="460" /><text fill="#2C3E50" font-family="Arial" font-size="13px" font-weight="bold" text-anchor="middle" x="540" y="505">3.3 Resource Alloc</text><text fill="#555555" font-family="Arial" font-size="11px" text-anchor="middle" x="540" y="535">Tier 4</text></g><g><rect fill="#95E1D3" height="120" rx="5" ry="5" stroke="#2C3E50" stroke-width="2" width="180" x="450" y="610" /><text fill="#2C3E50" font-family="Arial" font-size="13px" font-weight="bold" text-anchor="middle" x="540" y="655">3.4 Facilitation</text><text fill="#555555" font-family="Arial" font-size="11px" text-anchor="middle" x="540" y="685">Tier 3</text></g></g><g><rect fill="#34495E" height="60" stroke="#2C3E50" stroke-width="2" width="180" x="650" y="80" /><text fill="#FFFFFF" font-family="Arial" font-size="14px" font-weight="bold" text-anchor="middle" x="740" y="105">Measurement &amp;</text><text fill="#FFFFFF" font-family="Arial" font-size="14px" font-weight="bold" text-anchor="middle" x="740" y="125">Visualization</text><g><rect fill="#FF6B6B" height="120" rx="5" ry="5" stroke="#2C3E50" stroke-width="2" width="180" x="650" y="160" /><text fill="#2C3E50" font-family="Arial" font-size="13px" font-weight="bold" text-anchor="middle" x="740" y="205">4.1 KPI Design</text><text fill="#555555" font-family="Arial" font-size="11px" text-anchor="middle" x="740" y="235">Tier 1</text></g><g><rect fill="#95E1D3" height="120" rx="5" ry="5" stroke="#2C3E50" stroke-width="2" width="180" x="650" y="310" /><text fill="#2C3E50" font-family="Arial" font-size="13px" font-weight="bold" text-anchor="middle" x="740" y="355">4.2 Data Story</text><text fill="#555555" font-family="Arial" font-size="11px" text-anchor="middle" x="740" y="385">Tier 3</text></g><g><rect fill="#95E1D3" height="120" rx="5" ry="5" stroke="#2C3E50" stroke-width="2" width="180" x="650" y="460" /><text fill="#2C3E50" font-family="Arial" font-size="13px" font-weight="bold" text-anchor="middle" x="740" y="505">4.3 Reporting</text><text fill="#555555" font-family="Arial" font-size="11px" text-anchor="middle" x="740" y="535">Tier 3</text></g><g><rect fill="#F3F3F3" height="120" rx="5" ry="5" stroke="#2C3E50" stroke-width="2" width="180" x="650" y="610" /><text fill="#2C3E50" font-family="Arial" font-size="13px" font-weight="bold" text-anchor="middle" x="740" y="655">4.4 Dashboard</text><text fill="#555555" font-family="Arial" font-size="11px" text-anchor="middle" x="740" y="685">Tier 4</text></g></g><g><rect fill="#34495E" height="60" stroke="#2C3E50" stroke-width="2" width="180" x="850" y="80" /><text fill="#FFFFFF" font-family="Arial" font-size="14px" font-weight="bold" text-anchor="middle" x="940" y="105">Culture</text><text fill="#FFFFFF" font-family="Arial" font-size="14px" font-weight="bold" text-anchor="middle" x="940" y="125">Formation</text><g><rect fill="#FF6B6B" height="120" rx="5" ry="5" stroke="#2C3E50" stroke-width="2" width="180" x="850" y="160" /><text fill="#2C3E50" font-family="Arial" font-size="13px" font-weight="bold" text-anchor="middle" x="940" y="205">5.1 Psych Safety</text><text fill="#555555" font-family="Arial" font-size="11px" text-anchor="middle" x="940" y="235">Tier 1</text></g><g><rect fill="#95E1D3" height="120" rx="5" ry="5" stroke="#2C3E50" stroke-width="2" width="180" x="850" y="310" /><text fill="#2C3E50" font-family="Arial" font-size="13px" font-weight="bold" text-anchor="middle" x="940" y="355">5.2 Learning Org</text><text fill="#555555" font-family="Arial" font-size="11px" text-anchor="middle" x="940" y="385">Tier 3</text></g><g><rect fill="#F3F3F3" height="120" rx="5" ry="5" stroke="#2C3E50" stroke-width="2" width="180" x="850" y="460" /><text fill="#2C3E50" font-family="Arial" font-size="13px" font-weight="bold" text-anchor="middle" x="940" y="505">5.3 Knowledge</text><text fill="#555555" font-family="Arial" font-size="11px" text-anchor="middle" x="940" y="535">Tier 4</text></g><g><rect fill="#95E1D3" height="120" rx="5" ry="5" stroke="#2C3E50" stroke-width="2" width="180" x="850" y="610" /><text fill="#2C3E50" font-family="Arial" font-size="13px" font-weight="bold" text-anchor="middle" x="940" y="655">5.4 Role Model</text><text fill="#555555" font-family="Arial" font-size="11px" text-anchor="middle" x="940" y="685">Tier 3</text></g></g><g><rect fill="#34495E" height="60" stroke="#2C3E50" stroke-width="2" width="180" x="1050" y="80" /><text fill="#FFFFFF" font-family="Arial" font-size="14px" font-weight="bold" text-anchor="middle" x="1140" y="105">Decision</text><text fill="#FFFFFF" font-family="Arial" font-size="14px" font-weight="bold" text-anchor="middle" x="1140" y="125">Making</text><g><rect fill="#4ECDC4" height="120" rx="5" ry="5" stroke="#2C3E50" stroke-width="2" width="180" x="1050" y="160" /><text fill="#2C3E50" font-family="Arial" font-size="13px" font-weight="bold" text-anchor="middle" x="1140" y="205">6.1 Change Design</text><text fill="#555555" font-family="Arial" font-size="11px" text-anchor="middle" x="1140" y="235">Tier 2</text></g><g><rect fill="#FF6B6B" height="120" rx="5" ry="5" stroke="#2C3E50" stroke-width="2" width="180" x="1050" y="310" /><text fill="#2C3E50" font-family="Arial" font-size="13px" font-weight="bold" text-anchor="middle" x="1140" y="355">6.2 Quality</text><text fill="#555555" font-family="Arial" font-size="11px" text-anchor="middle" x="1140" y="385">Tier 1</text></g><g><rect fill="#95E1D3" height="120" rx="5" ry="5" stroke="#2C3E50" stroke-width="2" width="180" x="1050" y="460" /><text fill="#2C3E50" font-family="Arial" font-size="13px" font-weight="bold" text-anchor="middle" x="1140" y="505">6.3 Kaizen</text><text fill="#555555" font-family="Arial" font-size="11px" text-anchor="middle" x="1140" y="535">Tier 3</text></g><g><rect fill="#4ECDC4" height="120" rx="5" ry="5" stroke="#2C3E50" stroke-width="2" width="180" x="1050" y="610" /><text fill="#2C3E50" font-family="Arial" font-size="13px" font-weight="bold" text-anchor="middle" x="1140" y="655">6.4 Resilience</text><text fill="#555555" font-family="Arial" font-size="11px" text-anchor="middle" x="1140" y="685">Tier 2</text></g></g><rect fill="#FF6B6B" height="20" stroke="#2C3E50" width="30" x="50" y="820" /><text fill="#2C3E50" font-family="Arial" font-size="12px" x="90" y="835">Tier 1 (Essential)</text><rect fill="#4ECDC4" height="20" stroke="#2C3E50" width="30" x="280" y="820" /><text fill="#2C3E50" font-family="Arial" font-size="12px" x="320" y="835">Tier 2 (Foundation)</text><rect fill="#95E1D3" height="20" stroke="#2C3E50" width="30" x="530" y="820" /><text fill="#2C3E50" font-family="Arial" font-size="12px" x="570" y="835">Tier 3 (Complementary)</text><rect fill="#F3F3F3" height="20" stroke="#2C3E50" width="30" x="810" y="820" /><text fill="#2C3E50" font-family="Arial" font-size="12px" x="850" y="835">Tier 4 (Long-term)</text></svg>